# xmcd
#
# Track frame offsets: 
#        150
#        13487
#        33971
#        52574
#        69199
#        88875
#        104225
#        119443
#        134201
#        155458
#
# Disc length: 2270 seconds
#
# Revision: 0
# Processed by: cddbd v1.5.2PL0 Copyright (c) Steve Scherf et al.
# Submitted via: ExactAudioCopy v1.0b4
#
DISCID=8b08dc0a
DTITLE=Elvin Bishop - Hometown Boy Makes Good!
DYEAR=1976
DGENRE=Blues Rock, Modern Electric Blues
TTITLE0=Sugar Dumplin'
TTITLE1=Sidelines
TTITLE2=Twist and Shout
TTITLE3=Yes Sir
TTITLE4=Spend Some Time
TTITLE5=Give It Up
TTITLE6=Keep It Cool
TTITLE7=Graveyard Blues
TTITLE8=Once In A Lifetime
TTITLE9=D.C. Strut
EXTD=
EXTT0=
EXTT1=
EXTT2=
EXTT3=
EXTT4=
EXTT5=
EXTT6=
EXTT7=
EXTT8=
EXTT9=
PLAYORDER=
